<svg width="25" height="40" viewBox="0 0 25 40" fill="none" xmlns="http://www.w3.org/2000/svg">
<path d="M20 2.5C20.663 2.5 21.2989 2.76339 21.7678 3.23223C22.2366 3.70107 22.5 4.33696 22.5 5V35C22.5 35.663 22.2366 36.2989 21.7678 36.7678C21.2989 37.2366 20.663 37.5 20 37.5H5C4.33696 37.5 3.70107 37.2366 3.23223 36.7678C2.76339 36.2989 2.5 35.663 2.5 35V5C2.5 4.33696 2.76339 3.70107 3.23223 3.23223C3.70107 2.76339 4.33696 2.5 5 2.5H20ZM5 0C3.67392 0 2.40215 0.526784 1.46447 1.46447C0.526784 2.40215 0 3.67392 0 5V35C0 36.3261 0.526784 37.5979 1.46447 38.5355C2.40215 39.4732 3.67392 40 5 40H20C21.3261 40 22.5979 39.4732 23.5355 38.5355C24.4732 37.5979 25 36.3261 25 35V5C25 3.67392 24.4732 2.40215 23.5355 1.46447C22.5979 0.526784 21.3261 0 20 0L5 0Z" fill="black"/>
<path d="M12.5 35C13.163 35 13.7989 34.7366 14.2678 34.2678C14.7366 33.7989 15 33.163 15 32.5C15 31.837 14.7366 31.2011 14.2678 30.7322C13.7989 30.2634 13.163 30 12.5 30C11.837 30 11.2011 30.2634 10.7322 30.7322C10.2634 31.2011 10 31.837 10 32.5C10 33.163 10.2634 33.7989 10.7322 34.2678C11.2011 34.7366 11.837 35 12.5 35Z" fill="black"/>
</svg>
