<svg width="25" height="20" viewBox="0 0 25 20" fill="none" xmlns="http://www.w3.org/2000/svg">
<path d="M23.75 0.00877453C23.6435 -0.00292484 23.5362 -0.00292484 23.4297 0.00877453H1.55469C1.41449 0.0110778 1.27522 0.0334916 1.14062 0.0754123L12.4297 12.0619L23.75 0.00877453Z" fill="black"/>
<path d="M24.9062 1.16638L13.5312 13.2445C13.2385 13.5548 12.8425 13.7289 12.4297 13.7289C12.0169 13.7289 11.6209 13.5548 11.3281 13.2445L0.0546875 1.25801C0.0200308 1.39382 0.00165522 1.53376 0 1.6745V18.334C0 18.7758 0.16462 19.1995 0.457646 19.512C0.750671 19.8244 1.1481 19.9999 1.5625 19.9999H23.4375C23.8519 19.9999 24.2493 19.8244 24.5424 19.512C24.8354 19.1995 25 18.7758 25 18.334V1.6745C24.9938 1.50095 24.9622 1.32951 24.9062 1.16638ZM2.63281 18.334H1.54688V17.1428L7.22656 11.1371L8.32812 12.3116L2.63281 18.334ZM23.4219 18.334H22.3281L16.6328 12.3116L17.7344 11.1371L23.4141 17.1428L23.4219 18.334Z" fill="black"/>
</svg>
