<svg width="40" height="33" viewBox="0 0 40 33" fill="none" xmlns="http://www.w3.org/2000/svg">
<path d="M35.8884 8.09644C35.9138 8.45175 35.9138 8.80714 35.9138 9.16246C35.9138 20 27.6651 32.4874 12.5889 32.4874C7.94417 32.4874 3.62947 31.1422 0 28.8072C0.659924 28.8833 1.29438 28.9087 1.9797 28.9087C5.81213 28.9087 9.34011 27.6143 12.1574 25.4062C8.55331 25.33 5.53299 22.9696 4.49236 19.7209C5.00002 19.797 5.5076 19.8477 6.04065 19.8477C6.77667 19.8477 7.51276 19.7462 8.198 19.5686C4.44166 18.8071 1.6243 15.5076 1.6243 11.5229V11.4214C2.71564 12.0305 3.98478 12.4112 5.32986 12.4619C3.12173 10.9898 1.67508 8.47714 1.67508 5.63448C1.67508 4.11166 2.0811 2.71571 2.79181 1.49743C6.82737 6.47206 12.8934 9.72074 19.6954 10.0761C19.5685 9.46699 19.4923 8.83253 19.4923 8.198C19.4923 3.68017 23.1472 0 27.6903 0C30.0507 0 32.1827 0.989848 33.6802 2.58884C35.533 2.23352 37.3096 1.54821 38.8833 0.609143C38.2741 2.51274 36.9797 4.11173 35.2792 5.12689C36.929 4.94932 38.528 4.49236 40 3.85791C38.8834 5.48221 37.4874 6.92886 35.8884 8.09644Z" fill="black"/>
</svg>
