<svg width="40" height="29" viewBox="0 0 40 29" fill="none" xmlns="http://www.w3.org/2000/svg">
<path d="M39.1642 4.4006C38.7041 2.66843 37.3487 1.30422 35.6277 0.841259C32.5084 0 20 0 20 0C20 0 7.49171 0 4.37226 0.841259C2.65129 1.3043 1.29587 2.66843 0.835839 4.4006C0 7.54027 0 14.0909 0 14.0909C0 14.0909 0 20.6415 0.835839 23.7812C1.29587 25.5134 2.65129 26.8207 4.37226 27.2837C7.49171 28.125 20 28.125 20 28.125C20 28.125 32.5083 28.125 35.6277 27.2837C37.3487 26.8207 38.7041 25.5134 39.1642 23.7812C40 20.6415 40 14.0909 40 14.0909C40 14.0909 40 7.54027 39.1642 4.4006ZM15.9091 20.0384V8.14342L26.3636 14.091L15.9091 20.0384Z" fill="black"/>
</svg>
