<svg width="70" height="90" viewBox="0 0 70 90" fill="none" xmlns="http://www.w3.org/2000/svg">
<path d="M58.3333 5.625C59.8804 5.625 61.3642 6.21763 62.4581 7.27252C63.5521 8.32742 64.1667 9.75816 64.1667 11.25V78.75C64.1667 80.2418 63.5521 81.6726 62.4581 82.7275C61.3642 83.7824 59.8804 84.375 58.3333 84.375H11.6667C10.1196 84.375 8.63584 83.7824 7.54188 82.7275C6.44791 81.6726 5.83333 80.2418 5.83333 78.75V11.25C5.83333 9.75816 6.44791 8.32742 7.54188 7.27252C8.63584 6.21763 10.1196 5.625 11.6667 5.625H58.3333ZM11.6667 0C8.57247 0 5.60501 1.18526 3.41709 3.29505C1.22916 5.40483 0 8.26631 0 11.25V78.75C0 81.7337 1.22916 84.5952 3.41709 86.7049C5.60501 88.8147 8.57247 90 11.6667 90H58.3333C61.4275 90 64.395 88.8147 66.5829 86.7049C68.7708 84.5952 70 81.7337 70 78.75V11.25C70 8.26631 68.7708 5.40483 66.5829 3.29505C64.395 1.18526 61.4275 0 58.3333 0L11.6667 0Z" fill="white"/>
<path d="M35.0014 26.7192C33.8411 26.7192 32.7283 26.2748 31.9078 25.4836C31.0873 24.6925 30.6264 23.6194 30.6264 22.5006C30.6264 21.3817 31.0873 20.3087 31.9078 19.5175C32.7283 18.7264 33.8411 18.2819 35.0014 18.2819C36.1617 18.2819 37.2745 18.7264 38.095 19.5175C38.9155 20.3087 39.3764 21.3817 39.3764 22.5006C39.3764 23.6194 38.9155 24.6925 38.095 25.4836C37.2745 26.2748 36.1617 26.7192 35.0014 26.7192ZM35.0014 33.7503C38.0956 33.7503 41.063 32.5651 43.251 30.4553C45.4389 28.3456 46.6681 25.4842 46.6681 22.5006C46.6681 19.517 45.4389 16.6556 43.251 14.5458C41.063 12.4361 38.0956 11.2509 35.0014 11.2509C31.9072 11.2509 28.9397 12.4361 26.7518 14.5458C24.5639 16.6556 23.3347 19.517 23.3347 22.5006C23.3347 25.4842 24.5639 28.3456 26.7518 30.4553C28.9397 32.5651 31.9072 33.7503 35.0014 33.7503ZM35.0014 50.6249C32.6807 50.6249 30.4551 51.5138 28.8142 53.0961C27.1733 54.6784 26.2514 56.8245 26.2514 59.0622C26.2514 61.2999 27.1733 63.4459 28.8142 65.0282C30.4551 66.6105 32.6807 67.4995 35.0014 67.4995C37.322 67.4995 39.5476 66.6105 41.1886 65.0282C42.8295 63.4459 43.7514 61.2999 43.7514 59.0622C43.7514 56.8245 42.8295 54.6784 41.1886 53.0961C39.5476 51.5138 37.322 50.6249 35.0014 50.6249ZM14.5847 59.0622C14.5847 53.8408 16.7358 48.8334 20.5646 45.1413C24.3935 41.4493 29.5866 39.3752 35.0014 39.3752C40.4162 39.3752 45.6093 41.4493 49.4382 45.1413C53.267 48.8334 55.4181 53.8408 55.4181 59.0622C55.4181 64.2835 53.267 69.291 49.4382 72.983C45.6093 76.675 40.4162 78.7492 35.0014 78.7492C29.5866 78.7492 24.3935 76.675 20.5646 72.983C16.7358 69.291 14.5847 64.2835 14.5847 59.0622Z" fill="white"/>
</svg>
