<svg width="90" height="90" viewBox="0 0 90 90" fill="none" xmlns="http://www.w3.org/2000/svg">
<path d="M6.53223 44.9306C6.53223 23.6712 23.819 6.38008 45.0656 6.38008C51.9053 6.38008 58.3288 8.18045 63.9086 11.3199L66.961 5.7387C60.4669 2.08301 53.1617 0.110237 45.7106 0H44.9794C20.2867 0.0375078 0.269989 19.9054 0 44.5668V44.9981C0.00535366 51.1272 1.26389 57.1904 3.69825 62.815C6.1326 68.4396 9.69133 73.5067 14.1557 77.7049L18.5992 72.9039C14.7878 69.3094 11.7513 64.9734 9.67622 60.1623C7.60111 55.3512 6.53121 50.1666 6.53223 44.9269V44.9306ZM76.3543 12.7602L72.027 17.4111C75.6943 20.994 78.6081 25.2744 80.5967 30.0006C82.5853 34.7267 83.6087 39.803 83.6065 44.9306C83.6065 66.1825 66.3197 83.4736 45.0731 83.4736C38.3872 83.4736 32.0987 81.7633 26.6164 78.7552L23.414 84.4638C30.0277 88.0982 37.4521 90.0025 44.9981 90C69.8446 90 90 69.8471 90 44.9906C89.998 38.9786 88.7895 33.0281 86.4462 27.4918C84.1029 21.9555 80.6724 16.946 76.3581 12.7602H76.3543ZM7.36094 44.9306C7.36075 50.0546 8.40703 55.1246 10.4356 59.8297C12.4642 64.5348 15.4323 68.7758 19.158 72.2926L23.5828 67.5066C20.5188 64.5991 18.0789 61.098 16.4117 57.2167C14.7446 53.3353 13.8851 49.155 13.8857 44.9306C13.8857 27.7295 27.8726 13.7429 45.0656 13.7429C50.6266 13.7429 55.8464 15.2094 60.3725 17.775L63.5036 12.0513C57.8783 8.87376 51.5259 7.20807 45.0656 7.2165C24.2802 7.209 7.36094 24.1325 7.36094 44.9306ZM76.2456 44.9306C76.2456 62.1317 62.2587 76.1184 45.0656 76.1184C39.8761 76.1246 34.7679 74.8285 30.2087 72.3488L27.0139 78.035C32.548 81.0652 38.7566 82.6506 45.0656 82.6447C65.851 82.6447 82.7703 65.7212 82.7703 44.9306C82.7703 34.3984 78.4317 24.8752 71.457 18.0263L67.021 22.8048C69.9471 25.6977 72.2695 29.1434 73.8531 32.9417C75.4366 36.7401 76.2499 40.8153 76.2456 44.9306ZM68.9409 44.9306C68.9349 51.2601 66.4183 57.3287 61.9434 61.804C57.4685 66.2793 51.4011 68.7956 45.0731 68.8006C41.1389 68.8045 37.2654 67.8301 33.8011 65.965L30.6212 71.6174C35.0558 74.03 40.0251 75.2901 45.0731 75.2819C61.8124 75.2819 75.4281 61.6666 75.4281 44.9231C75.4281 36.5214 72.0008 28.9073 66.466 23.4011L62.0449 28.1534C66.464 32.6184 68.9422 38.6478 68.9409 44.9306ZM14.7219 44.9306C14.7219 53.5612 18.348 61.3665 24.1527 66.9027L28.5513 62.1392C26.2271 59.9166 24.3775 57.2457 23.1142 54.2879C21.851 51.3302 21.2004 48.147 21.2016 44.9306C21.2076 38.6017 23.7237 32.5338 28.1978 28.0586C32.6719 23.5834 38.7383 21.0666 45.0656 21.0606C49.2013 21.0578 53.2658 22.1375 56.8551 24.1925L59.9675 18.5026C55.4236 15.9255 50.2892 14.5712 45.0656 14.5718C28.3376 14.5718 14.7219 28.1871 14.7219 44.9306ZM61.7074 44.9306C61.7064 49.3447 59.9527 53.5778 56.8318 56.6987C53.711 59.8196 49.4787 61.5728 45.0656 61.5728C42.3727 61.5739 39.72 60.9186 37.3372 59.6637L34.2061 65.2449C37.545 67.0375 41.2761 67.9744 45.0656 67.9717C51.1731 67.9657 57.0288 65.5363 61.3475 61.2165C65.6661 56.8968 68.095 51.0396 68.1009 44.9306C68.1048 38.8813 65.7224 33.0748 61.4712 28.7722L57.1139 33.4607C60.0608 36.5518 61.7045 40.6594 61.7037 44.9306H61.7074ZM22.0303 44.9306C22.0283 48.032 22.6545 51.1016 23.8713 53.9542C25.0881 56.8068 26.8702 59.3832 29.11 61.5278L33.4486 56.8393L33.5011 56.8919C31.8931 55.3442 30.6142 53.4877 29.7411 51.4336C28.868 49.3795 28.4187 47.1702 28.4201 44.9381C28.4196 42.7525 28.8496 40.5882 29.6856 38.5688C30.5215 36.5495 31.7471 34.7147 33.2921 33.1692C34.8372 31.6237 36.6716 30.3979 38.6904 29.5617C40.7093 28.7255 42.873 28.2954 45.0581 28.2959C48.088 28.2959 50.9229 29.1173 53.3715 30.5389L56.4464 24.9202C52.9796 22.9346 49.0531 21.8922 45.0581 21.8971C32.3687 21.8783 22.0303 32.223 22.0303 44.9306ZM47.0793 44.9306C47.048 45.4436 46.8222 45.9252 46.448 46.2774C46.0738 46.6295 45.5794 46.8256 45.0656 46.8256C44.5519 46.8256 44.0574 46.6295 43.6832 46.2774C43.3091 45.9252 43.0833 45.4436 43.052 44.9306C43.052 44.3959 43.2643 43.8831 43.6423 43.5051C44.0203 43.127 44.5329 42.9146 45.0675 42.9146C45.6021 42.9146 46.1147 43.127 46.4927 43.5051C46.8707 43.8831 47.083 44.3959 47.083 44.9306H47.0793ZM32.3049 44.9306C32.3049 41.5479 33.6483 38.3037 36.0397 35.9118C38.431 33.5199 41.6744 32.1761 45.0562 32.1761C48.4381 32.1761 51.6815 33.5199 54.0728 35.9118C56.4641 38.3037 57.8076 41.5479 57.8076 44.9306C57.8076 48.3128 56.4643 51.5565 54.0734 53.9481C51.6824 56.3397 48.4395 57.6833 45.0581 57.6833C41.6768 57.6833 38.4339 56.3397 36.0429 53.9481C33.6519 51.5565 32.3087 48.3128 32.3087 44.9306H32.3049ZM32.8636 44.9306C32.8676 48.1644 34.1536 51.2646 36.4397 53.5512C38.7257 55.8378 41.8252 57.1242 45.0581 57.1282C48.2927 57.1272 51.3946 55.842 53.6825 53.5549C55.9704 51.2679 57.2571 48.166 57.2601 44.9306C57.2601 43.3283 56.9446 41.7417 56.3316 40.2614C55.7186 38.7811 54.82 37.436 53.6873 36.303C52.5546 35.17 51.2099 34.2713 49.7299 33.6581C48.25 33.0449 46.6638 32.7293 45.0619 32.7293C43.46 32.7293 41.8738 33.0449 40.3938 33.6581C38.9138 34.2713 37.5691 35.17 36.4364 36.303C35.3037 37.436 34.4052 38.7811 33.7922 40.2614C33.1791 41.7417 32.8636 43.3283 32.8636 44.9306Z" fill="white"/>
</svg>
