<svg width="90" height="90" viewBox="0 0 90 90" fill="none" xmlns="http://www.w3.org/2000/svg">
<path d="M78.75 73.125H70.3125C69.5508 73.125 68.8916 72.8467 68.335 72.29C67.7783 71.7334 67.5 71.0742 67.5 70.3125V42.1875C67.5 41.4258 67.7783 40.7666 68.335 40.21C68.8916 39.6533 69.5508 39.375 70.3125 39.375H73.125C73.125 30.7031 70.708 23.8477 65.874 18.8086C61.04 13.7695 54.082 11.25 45 11.25C35.918 11.25 28.96 13.7695 24.126 18.8086C19.292 23.8477 16.875 30.7031 16.875 39.375H19.6875C20.4492 39.375 21.1084 39.6533 21.665 40.21C22.2217 40.7666 22.5 41.4258 22.5 42.1875V70.3125C22.5 71.0742 22.2217 71.7334 21.665 72.29C21.1084 72.8467 20.4492 73.125 19.6875 73.125H16.875C16.875 76.2305 17.9736 78.8818 20.1709 81.0791C22.3682 83.2764 25.0195 84.375 28.125 84.375H33.75C33.75 82.793 34.292 81.46 35.376 80.376C36.46 79.292 37.793 78.75 39.375 78.75H45C46.582 78.75 47.915 79.292 48.999 80.376C50.083 81.46 50.625 82.7783 50.625 84.3311C50.625 85.8838 50.083 87.2168 48.999 88.3301C47.915 89.4434 46.582 90 45 90H28.125C23.4375 90 19.4531 88.3594 16.1719 85.0781C12.8906 81.7969 11.25 77.8125 11.25 73.125C8.14453 73.125 5.49316 71.4844 3.2959 68.2031C1.09863 64.9219 0 60.9375 0 56.25C0 53.2031 0.512695 50.3906 1.53809 47.8125C2.56348 45.2344 3.92578 43.2129 5.625 41.748V39.375C5.625 34.043 6.66504 28.9453 8.74512 24.082C10.8252 19.2188 13.623 15.0293 17.1387 11.5137C20.6543 7.99805 24.8438 5.2002 29.707 3.12012C34.5703 1.04004 39.668 0 45 0C50.332 0 55.4297 1.04004 60.293 3.12012C65.1562 5.2002 69.3457 7.99805 72.8613 11.5137C76.377 15.0293 79.1748 19.2188 81.2549 24.082C83.335 28.9453 84.375 34.043 84.375 39.375V41.748C86.0742 43.2129 87.4365 45.2344 88.4619 47.8125C89.4873 50.3906 90 53.2031 90 56.25C90 60.9375 88.9014 64.9219 86.7041 68.2031C84.5068 71.4844 81.8555 73.125 78.75 73.125Z" fill="white"/>
</svg>
